<svg width="20" height="19" xmlns="http://www.w3.org/2000/svg">
 <title/>
 <desc/>

 <g>
  <title>background</title>
  <rect fill="none" id="canvas_background" height="402" width="582" y="-1" x="-1"/>
 </g>
 <g>
  <title>Layer 1</title>
  <path fill="#ffffff" id="Shape" d="m8.023686,17.5l0,-6l4,0l0,6l5,0l0,-8l3,0l-10,-9l-10,9l3,0l0,8l5,0z"/>
  <polyline stroke-linecap="round" id="svg_1" points="5.393129590560644,5.89774121267674 5.393129590560644,5.89774121267674 " stroke-width="null" fill="none"/>
  <path stroke="null" d="m6.743215,4.620118c0.023685,0 0.094743,0 0.142114,0c0.118429,0 0.213171,0 0.260543,0c0.071057,0 0.1658,0 0.260543,0c0.142114,0 0.3316,0 0.4974,0c0.236857,0 0.358453,-0.036684 0.473714,0.246611c0.051545,0.126694 0.11896,0.156209 0.189486,0.246606c0.096927,0.124236 0.212905,0.263829 0.355286,0.493217c0.165514,0.266659 0.287025,0.339188 0.450028,0.739829c0.145794,0.358342 0.331599,0.739824 0.378971,0.986435c0.047372,0.246611 0.071057,0.246611 0.094743,0.246611l0,0l-0.047371,-0.246611" id="svg_2" stroke-width="null" fill="none"/>
 </g>
</svg>